<?xml version="1.0" encoding="utf-8"?>
<!-- Generator: Adobe Illustrator 22.0.0, SVG Export Plug-In . SVG Version: 6.00 Build 0)  -->
<svg version="1.1" xmlns="http://www.w3.org/2000/svg" xmlns:xlink="http://www.w3.org/1999/xlink" x="0px" y="0px"
	 viewBox="0 0 463.4 255.5" style="enable-background:new 0 0 463.4 255.5;" xml:space="preserve">
<style type="text/css">
	.st0{display:none;}
	.st1{display:inline;}
	.st2{fill:#939598;}
	.st3{font-family:'Gotham-Bold';}
	.st4{font-size:15.843px;}
	.st5{display:inline;fill:none;}
</style>
<g id="Layer_1" class="st0">
	<g class="st1">
		<path class="st2" d="M176.6,10C186.8,4,198.6,4,207,9.6c21.2-18.7,49-30.1,79.5-30.1c55.4,0,102,37.5,115.8,88.5
			c2.3-1.2,4.9-2.1,7.6-2.6c0.2,0,0.4-0.1,0.5-0.1c2.1-4.3,6.7-5.8,8.6-6.4c0.3-0.1,0.6-0.2,0.8-0.3l6.9-2.9
			C408.1-4,352.4-47.4,286.5-47.4c-52.3,0-98.2,27.3-124.2,68.5C166.4,17.1,171.1,13.3,176.6,10z"/>
		<path class="st2" d="M423.7,130.1c-1.7,0-3.2-0.3-4.4-0.6c-3.9-1-8.4-3.4-11.2-9.2c-1.2,0.6-2.5,1.1-3.7,1.4
			c-10.4,55.7-59.2,97.8-117.9,97.8c-46.6,0-87.1-26.6-106.9-65.5c-3.6,1.3-6.9,1.7-9.7,1.7c-0.6,0-1.2,0-1.8-0.1
			c-7.6-0.5-14.9-4-21-9.9c19.4,58.5,74.5,100.6,139.4,100.6c71.1,0,130.5-50.6,144-117.7C428,129.7,425.7,130.1,423.7,130.1z"/>
	</g>
	<g class="st1">
		<g>
			<path class="st2" d="M286.5,7.4c5,2.1,6.3,3.6,5.1,9.4c-1.8,8.9-4.2,17.6-6.4,26.4c-0.3,1.3-0.8,2.5-1.4,4c4.9-1,9.4-1.8,13.8-3
				c1.1-0.3,2.3-1.6,2.7-2.8c1.5-4,2.7-8.2,4.2-12.3c0.5-1.4,1.1-2.9,2.1-3.9c1.1-1,2.8-1.5,4.2-2.2c0.4,1.5,1.3,3.1,1.1,4.6
				c-0.7,5.1-1.7,10.1-2.6,15.3c4.7,1.3,10.3-0.2,13.7,4.5c-4.1,0-8-0.2-11.9,0.1c-1.1,0.1-2.9,1.3-3,2.2c-4,21.2-8.6,42.5-6.8,64.3
				c0.4,4.8,1.9,9.5,3.4,14.2c0.6,1.9,2.2,3.6,3.3,5.2c0.8-0.2,1.1-0.3,1.3-0.4c1.4-0.6,2.7-1.4,4.1-1.9c0.1-0.1,1.1,1.2,1,1.5
				c-0.7,1.5-1.4,3.4-2.6,4.3c-2.8,2.1-7.9,0.9-10.7-2.2c-5.1-5.7-6.8-12.8-8-20.1c-0.3-1.6-0.5-3.2-0.7-5.1
				c-3.1,4.7-5.7,9.4-8.9,13.6c-6.3,8-16.1,7.1-20.8-1.8c-5.4-10.2-6.4-21.3-6-32.5c0.6-20.9,4.9-41.2,12.9-60.6
				c2-4.7,4.3-9.5,7.3-13.5c2.2-3,5.9-4.8,8.9-7.2C285.9,7.4,286.2,7.4,286.5,7.4z M298.4,47.9c-5.9,1.4-11.4,1.8-16,4
				c-2.2,1.1-2.8,5.6-4.1,8.5c-1.3,2.8-2.3,5.9-3.9,8.5c-7,11.6-9.8,23.9-7.6,37.4c0,0.3,0,0.6,0,0.8c1.5,5.1,2.9,10.3,4.7,15.3
				c1,2.7,3,2.5,4.7,0.5c3.7-4.2,7.6-8.2,10.8-12.7c3.6-5.2,5.2-11,5.3-17.6c0.1-8.1,1.2-16.2,2.3-24.3
				C295.5,61.8,297,55.4,298.4,47.9z M267.2,77c0.6-0.7,1.1-1,1.2-1.5c6.3-16,12.7-31.9,18.7-48c1.3-3.5,1.5-7.4,1.9-11.2
				c0.1-1.2-0.8-2.4-1.2-3.6c-1.2,0.8-2.5,1.3-3.4,2.4c-1.1,1.3-2,2.9-2.6,4.6C274.1,37.9,268.5,56.7,267.2,77z"/>
		</g>
		<g>
			<path class="st2" d="M219.8,109.3c0.7-1.5,1.2-3.1,2-4.5c6.5-11.1,13-22.3,19.5-33.4c0.3-0.6,0.3-1.5,0.8-1.8
				c1.7-1.1,3.6-2,5.4-3c0.3,1.8,1.2,3.7,1,5.4c-1.5,9.4-3.7,18.6-4.7,28c-0.5,5,0.8,10.2,1.4,15.3c0.1,0.9,1,1.8,1.9,3.1
				c0.9-1.5,1.4-2.8,2.3-3.7c0.6-0.7,2.2-1.4,2.6-1.1c0.8,0.6,1.6,1.9,1.5,2.9c-0.3,3.9-4.3,6.4-8.1,5.1c-4.3-1.5-6.4-4.7-7.1-9.1
				c-1.3-8.8-1.6-17.6,0.6-26.3c0.2-0.9,0.1-1.9-0.4-3.1c-1.1,1.8-2.1,3.6-3.2,5.4c-4.3,7.1-8.6,14.2-12.8,21.3
				c-1.5,2.5-3.5,4.4-6.6,3.8c-3.3-0.6-5.8-2.4-6.3-6c-0.3-2-0.7-3.9-1-5.6c-4.2,7.8-8.2,16-12.9,23.7c-2.9,4.8-6.6,9.4-10.6,13.4
				c-11.9,11.6-25.4,7.2-33.8-3.4c-6.4-8-9.1-17.5-10.1-27.5c-1.3-12.8-0.2-25.5,3.7-37.2c-4.2-3.8-8.8-6.9-12.1-11
				c-5.3-6.5-6.7-14.2-3.7-22.2c0.8-2.2,2.5-4.2,4.3-5.7c0.9-0.7,2.9-0.1,5.1-0.1c-8.9,13.1-5.4,26.1,8.2,33.3
				c0.9-2,1.8-4.1,2.7-6.1c7.3-16.2,16.6-30.9,32.4-40.3c8.2-4.9,17.8-4.2,22.7,2c3.8,4.7,4.2,10.2,3.3,15.8
				c-1.4,8.5-5.5,15.6-11.9,21.2c-11,9.7-23.3,15.8-38.5,14.5c-1-0.1-2.8,1.1-3.1,2c-4.2,14.6-5.7,29.4-1.7,44.2
				c1.5,5.8,4.3,11.4,7.5,16.5c4.1,6.5,10.1,7.1,16.6,3.1c10.9-6.5,17.3-16.7,22.3-27.9c4.4-9.6,8.3-19.4,12.3-29.2
				c1.1-2.7,5.2-5,7.9-4c0.7,0.3,1.2,2,1,3c-1.2,7.4-2.6,14.7-3.7,22c-0.3,1.8,0.5,3.8,0.8,5.7C218.1,108.3,218.9,108.8,219.8,109.3
				z M156.2,68.5c3,0,5.4,0.3,7.8,0c11.7-1.7,21.6-7,29.9-15.3c5.9-5.9,9.4-12.9,9.9-21.3c0.3-4.6-1.2-8.7-5.3-11.2
				c-3.8-2.4-7.2-0.2-10.1,1.9c-3.9,2.9-7.8,5.9-11.2,9.3c-9,9.5-14.7,21-20.1,32.8C156.6,65.8,156.5,67,156.2,68.5z"/>
		</g>
		<g>
			<path class="st2" d="M424.5,116.9c3.1-3.5,6.7-6.6,9-10.6c3.3-5.4,5.6-11.4,8.3-17.2c0.5-1,1.3-1.9,2-2.9c0.6,0.3,1.2,0.7,1.7,1
				c-2.3,5.5-4.4,11.2-7.1,16.5c-2.1,4.1-4.8,7.9-7.5,11.6c-2.2,3.1-5.2,5.5-9.3,4.5c-4.4-1.1-5.5-5-5.9-8.9
				c-0.6-5.1-0.7-10.2-1.1-16.1c-2.3,4.2-4.2,7.8-6.3,11.4c-2.4,4.2-5.7,6.9-11,5.7c-2.7-0.6-4.3-1.9-4.8-4.7
				c-1.7-9.6,5.5-25.5,14-30.3c1.5-0.8,3.2-1.4,4.9-1.7c3.5-0.6,7-0.5,7.8-5.4c0.1-0.9,2.8-1.3,4.4-2c0.5,1.4,1.6,2.8,1.4,4.1
				c-1,8.9-2.5,17.7-3.2,26.6c-0.4,5.7,0.2,11.5,0.4,17.3C423.1,116.3,423.8,116.6,424.5,116.9z M415.6,79.3
				c-6.7,1.8-14.8,15.6-15,25.2C405.9,104.3,414.8,89.5,415.6,79.3z"/>
		</g>
		<g>
			<path class="st2" d="M325.3,108.2c2.1-2.7,4.4-5.3,6.1-8.3c5.7-9.9,11.1-19.9,16.7-29.8c0.6-1.1,1.7-2.2,2.8-2.8
				c0.9-0.5,2.5-0.8,3.3-0.3c0.7,0.4,1.1,2.1,0.9,3.1c-1,4.8-2.7,9.4-3.2,14.2c-0.9,8.9-1.3,17.8-1.5,26.8c-0.1,2.3,1.4,4.5,2.5,8
				c1.3-2.2,1.7-3.4,2.6-4.2c0.7-0.7,1.9-1,2.9-1.4c0.5,1,1.4,2.1,1.3,3c-0.4,4-4.3,6.3-8.1,5c-4.3-1.5-6.8-4.8-6.9-9.2
				c-0.1-8.6,0.2-17.3,0.4-25.9c0-1,0.2-2.1-0.3-3.4c-1.9,3.2-3.7,6.5-5.6,9.7c-3.5,5.8-6.8,11.7-10.8,17.3
				c-1.3,1.8-4.1,3.3-6.2,3.3c-3.1,0-5.5-2.1-6.2-5.5c-1.8-9.1-1.1-18.1,1.7-27c0.8-2.7,5.6-5,8-3.8c0.7,0.3,1,2.1,0.8,3.2
				c-1.2,7.3-2.6,14.7-3.7,22c-0.3,1.7,0.5,3.6,0.8,5.4C324.1,107.8,324.7,108,325.3,108.2z"/>
		</g>
		<g>
			<path class="st2" d="M370.3,101.2c3.7-5.4,7.1-10.9,11.1-15.9c2.8-3.5,7-3.6,8.6-0.5c1.3,2.4,1.6,5.3,2.5,8.4
				c-6.1-0.1-3.7-5.9-7.5-7.7c-1.6,1.9-3.7,4-5.3,6.4c-5.2,7.5-7.3,16.2-8.9,25.1c-0.4,2.2-0.5,4.2-3.6,4.3
				c-3.1,0.1-4.2-1.7-4.4-4.2c-1.3-14.6-1.5-29,3.9-43c0.2-0.6,0.3-1.4,0.8-1.8c1-0.9,2.3-1.7,3.4-2.5c0.5,1.3,1.5,2.6,1.4,3.8
				c-0.5,7.7-1.3,15.4-1.9,23.1C370.2,98.2,370.3,99.7,370.3,101.2z"/>
		</g>
	</g>
	<g class="st1">
		<text transform="matrix(1 0 0 1 203.2301 174.1438)" class="st3 st4">PANADERIA Y CAFE</text>
		<text transform="matrix(1 0 0 1 203.2301 174.1438)" class="st2 st3 st4">PANADERIA Y CAFE</text>
	</g>
	<path id="SVGID_x5F_1_x5F_" class="st5" d="M160.6,99.5c0-69.2,56.4-125.4,125.9-125.4S412.4,30.3,412.4,99.5
		S356,224.9,286.5,224.9S160.6,168.8,160.6,99.5z"/>
	<text class="st1">	<textPath  xlink:href="#SVGID_x5F_1_x5F_" startOffset="100%">
<tspan  class="st3" style="fill:#FFFFFF; font-size:21.1979px;">BAKERY &amp; CAFE</tspan>	</textPath>
</text>
	<path id="SVGID_x5F_2_x5F_" class="st5" d="M146.2,99.5c0,77.1,62.8,139.6,140.3,139.6s140.3-62.5,140.3-139.6
		S363.9-40.1,286.5-40.1S146.2,22.4,146.2,99.5z"/>
	<text class="st1">	<textPath  xlink:href="#SVGID_x5F_2_x5F_" startOffset="-166.5365%">
<tspan  class="st3" style="fill:#FFFFFF; font-size:19.9867px;">LATINOAMERICANO</tspan>	</textPath>
</text>
</g>
<g id="Layer_2">
	<g>
		<path class="st2" d="M16.8,137.1c1.2-6.5,2.1-13,3.7-19.5c2.9-12,7.6-23.4,16.1-33.3C43.1,76.7,51,72,60.2,70.5
			c7.4-1.2,14.9-2.4,23.4-3.8c-1.3,4.3-2,8.1-3.6,11.6c-3.5,7.7-7.5,15.2-11,22.8c-1,2.2-1.3,4.6-2,7.2c1.2-0.3,1.4-0.3,1.6-0.4
			c1.4-1.4,2.6-3.3,4.2-4c0.9-0.4,3.3,0.8,3.4,1.8c0.2,1.8-0.2,4.2-1.3,5.8c-2.3,3.1-5.6,4.2-9,3.7c-3.7-0.6-5.7-3.2-5.6-6.8
			c0.1-3.8,0.9-7.9,1.8-11.8c1-4.3,2.5-8.6,3.5-12.8c1.4-5.9-1.7-8.2-7.3-5.8c-4.2,1.7-7,5-9.3,8.8c-6,9.6-8.6,19.9-10.5,30.3
			c-4,21.6-3.4,42.4,3.4,61.6c1.7,4.8,4.8,9.1,8,12.9c3.3,3.9,8.5,4.3,13.9,1.7c5.4-2.7,8.1-7.6,8.8-13.1c0.7-5.5,0.8-11.1-5.7-12.5
			c1.6-4.4,4-6.3,8.4-6.9c4.4-0.6,8.4,1.7,9.5,6.2c2.7,10.5-1.6,26.4-16.1,33.1c-17.4,8-35.4,2.3-43.7-14.1
			c-4.4-8.7-6.6-18.2-7.5-28.4c-0.1-1.2-0.5-2.3-0.7-3.4C16.8,148.4,16.8,142.8,16.8,137.1z"/>
		<path class="st2" d="M326,89.7c6.7,7.4,9.5,17.9,19.8,22c-7.2,1.2-14,2.3-21.1,3.5c2.7-4.3-0.1-6.5-1.6-9.1
			c-2-3.3-4.2-6.4-6.6-9.4c-1.5-1.9-3.3-3.6-6.7-3.3c0.3,6.5,0.5,12.8,0.9,19.1c0.1,1.5,0.6,3.1,2.5,3.2c0.3,0,0.5,0.6,1,1.3
			c-7.2,1.2-14,2.3-20.8,3.4c0-0.2-0.1-0.4-0.1-0.5c4.3-3,3.7-7.2,3.8-11c0.2-6.5,0.1-12.9,0.1-19.4c0-12.7,0-25.4,0-38.2
			c0-2.5-0.2-4.9-0.5-7.3c-0.2-1.8-0.5-3.7-2.8-3.8c-0.3,0-0.5-0.6-0.9-1.1c1.1-0.3,1.8-0.5,2.5-0.6c6.7-1.1,13.4-2.2,20.1-3.3
			c13.8-2.2,25.1,4.8,28.2,17.5c3.1,12.8-3.3,27.4-15.7,35.5C327.7,88.6,327.2,88.9,326,89.7z M310.2,88.8
			c8.9-1.4,15.1-6.8,18.8-14.8c4.8-10.3,4.3-19.7-1.9-27.4c-4-5-9.5-7.4-16.9-5.7C310.2,56.9,310.2,72.7,310.2,88.8z"/>
		<path class="st2" d="M118.6,67.7c6.7-1.1,13.5-2.2,20.3-3.3c0,0.3,0.1,0.5,0,0.6c-4,2.7-3.6,6.6-3.8,10.2
			c-0.3,5.4-0.1,10.8-0.1,16.2c0,11.6,0,23.1,0,34.7c0,10.9-7.9,20.7-19.2,23.6c-8.7,2.1-19.4-1.6-21.8-12.3
			c-0.4-1.6-0.4-3.4-0.4-5.2c0-15.9,0-31.8,0-47.7c0-2.4-0.2-4.7-0.5-7c-0.2-1.6-0.4-3.5-2.7-3.6c-0.3,0-0.6-0.6-1.1-1.2
			c7.2-1.2,14-2.3,21-3.5c-0.1,0.4-0.1,1-0.3,1.1c-2.8,1.4-3,3.8-3.2,6.2c-0.1,1.6-0.4,3.2-0.4,4.8c0,16.8,0,33.6,0,50.4
			c0,5.1,2.2,8.8,6.1,11.3c1.2,0.8,2.2,0.6,3.5-0.5c4.2-3.9,6.2-8.5,6.2-13.6c0.1-17,0-33.9,0-50.9c0-1.8,0-3.6-0.6-5.2
			C121.1,70.9,119.8,69.5,118.6,67.7z"/>
		<path class="st2" d="M266.5,43.2c5.9-1,11.9-2,17.9-2.9c0.9-0.1,1.7-0.3,2.6-0.4c0,0.4,0.1,0.7,0,0.8c-4.7,3.4-3.8,8-3.8,12
			c-0.2,16.2-0.1,32.3-0.1,48.5c0,1.2,0,2.5-0.2,3.7c-2.7,15.5-19.6,25.3-32.3,18.9c-5.8-2.9-8.9-7.9-8.9-15c0-16.2,0-32.3,0-48.5
			c0-2.5,0-5-0.6-7.3c-0.5-1.8-1.9-3.2-3-4.8c6.5-1.1,13.3-2.2,20.2-3.3c0,0.3,0,0.7-0.1,0.7c-4,2.4-3.4,6.2-3.6,9.4
			c-0.3,6.8-0.2,13.4-0.2,20.2c0,10.6,0,21.2,0,31.8c0,5.1,2.1,8.8,6,11.4c1.4,0.9,2.5,0.7,3.9-0.6c4-3.9,5.9-8.4,5.9-13.4
			c0.1-17,0-33.9,0-50.9c0-1.8,0-3.6-0.6-5.1C269,46.6,267.7,45.1,266.5,43.2z"/>
		<path class="st2" d="M366.8,108.2c-5.2,0.9-10.5,1.7-15.8,2.6c0.1-0.4,0.1-0.8,0.3-0.9c3.8-2.1,4.7-5.7,5.5-9.3
			c3.2-14.1,6.4-28.3,9.5-42.4c1.7-7.7,3.4-15.5,5-23.2c0.3-1.3,0.4-2.7,0.4-4c0.1-1.5,0.2-3.1-1.8-3.3c-0.3,0-0.3-0.6-0.6-1.2
			c7.3-1.2,14.3-2.3,21.2-3.5c0.1,0.3,0.2,0.5,0.1,0.6c-3.6,3.1-2.5,6.7-1.9,9.8c2.4,14.5,5.2,28.9,7.9,43.6c2.3-2,1.1-3.6,0.5-5.1
			c2.8-0.8,5.1,0.5,6.1,3.2c1.2,3.5-0.3,6.8-5.1,10.3c2,5.6,0.3,13.1,7.6,16.4c-7.6,1.2-14.4,2.4-21.2,3.5c0-0.4-0.1-0.8,0-0.8
			c3.3-2.2,2.6-5.1,2.3-7.7c-0.3-3.1-0.9-6.2-1.6-9.1c-0.2-0.9-1.2-1.8-2-2c-9.5-1.7-16.6,4-18.1,14.3c-0.4,3.1-1.5,6.3,2.2,7.8
			C367.2,107.9,367,108.1,366.8,108.2z M383.7,79c-2-11-4.1-22.4-6.2-33.7c-0.2,0.1-0.3,0.1-0.5,0.2c-2.8,12.8-5.7,25.7-8.4,38
			C373.6,82,378.6,80.5,383.7,79z"/>
		<path class="st2" d="M217.1,132.9c-6.8,1.1-13.5,2.2-20.4,3.4c0-0.3-0.1-0.9,0-0.9c4.1-2.6,3.5-6.4,3.5-9.7
			c0.1-18.3,0.1-36.6,0.1-54.9c0-3.9,0-7.7,0-11.6c-6.4,0.1-8.9,2.8-8.2,8.8c0.5,4,1.2,8,1.1,12.2c0,2.3-1.1,5-2.5,7.1
			c-2.2,3.2-6.8,3.4-8.9,0.8c-1.3-1.6-1.1-3.8,0.4-5c1.9-1.4,3.4-0.9,4.3,0.8c0.1,0.2,0.3,0.3,0.5,0.5c0.3-0.1,0.5-0.2,0.8-0.3
			c-0.6-2.5-1-5.1-1.7-7.6c-1.5-5.8-3.1-11.6-4.7-17.3c-0.1-0.5-0.1-1-0.1-1.6c17-2.8,33.8-5.6,51.5-8.5c-2.4,9.8-4.8,19.3-7.2,29.1
			c0.9-0.2,1.1-0.2,1.2-0.3c1.1-1,2.2-2.3,3.4-2.9c0.5-0.3,2.2,0.8,2.2,1.4c-0.1,1.4-0.5,3.2-1.4,4.4c-1.5,2.1-3.7,2.9-6,2.4
			c-2.9-0.6-4.4-2.7-4.5-5.5c-0.1-3.8,0.4-7.8,0.7-11.7c0.1-1,0.3-2,0.3-2.9c0.2-6.5-1.5-7.7-8.4-5.9c0,0.9,0,1.8,0,2.8
			c0,20.2,0,40.5,0,60.7c0,2.4,0.2,4.7,0.5,7c0.3,2.4,1,4.4,4.2,4.5C217.6,132.2,217.4,132.5,217.1,132.9z"/>
		<path class="st2" d="M185.8,138c-13.4,2.2-27,4.4-40.6,6.7c0-0.4,0-0.8,0.1-0.9c3.7-2.2,3.5-5.5,3.5-8.6
			c0.1-17.2,0.1-34.4,0.1-51.7c0-2.6,0.1-5.3,0-7.9c-0.3-4.4,1.2-9.6-4.5-12c7.6-1.3,14.4-2.4,21.3-3.5c-0.1,0.3-0.1,0.8-0.3,0.9
			c-3.3,1.9-3.3,4.9-3.3,7.6c-0.2,20.3-0.3,40.6-0.4,61c0,2.5,0,4.9,0,7.3c8.8,0,13.3-1.8,16.3-11c1.3-3.9,1.7-8,2.4-12
			c0.6-3.8,1.6-4.7,5.1-4.8c-0.4,4.9-1.1,9.8-1.1,14.5C184.5,128.5,185.3,133.2,185.8,138z"/>
	</g>
	<g>
		<path class="st2" d="M223.2,173.4c7,2.7,11.2,7.5,12.5,14.9c1.6,9.7-5.8,22.9-17.7,25.8c-7.2,1.7-14.4,2.5-21.8,3.7
			c0-0.3,0-0.8,0.1-0.8c2.9-1.7,2.6-4.3,2.7-6.6c0.1-11.5,0.1-23,0.1-34.6c0-7.6,0-15.3-0.1-22.9c0-1.4-0.2-2.8-0.4-4.1
			c-0.1-1.2-0.5-2.1-1.8-2.3c-0.3,0-0.4-0.5-1-1c2.2-0.4,4.1-0.7,5.9-1c5.5-0.9,11-2.2,16.3-1.5c4.9,0.7,9.3,2.2,12.1,6.3
			c4.8,7.2,0.5,17.7-5.7,23.1C224.1,172.7,223.7,173,223.2,173.4z M209,178.2c0,11.3,0,22.3,0,33.3c4.5,0.8,9.8-3.1,12.9-7.3
			c4.6-6.1,5.6-13,2.4-18.4C221.1,180.2,216.3,177.1,209,178.2z M208.9,175.7c9.3-2.5,14.8-10.9,13.4-20.3c-0.9-6.1-7.5-10-13.4-7.9
			C208.9,157,208.9,166.3,208.9,175.7z"/>
		<path class="st2" d="M377.4,164.2c0.2,5,0.4,9.9,0.8,14.8c0.1,0.8,1.2,1.4,1.8,2.1c0.3,0.3,0.5,0.6,0.8,1.1
			c-5.5,0.9-10.6,1.7-15.9,2.6c0.2-0.4,0.3-1,0.5-1.1c1.9-0.8,2.1-2.5,2.2-4c0.2-2.3,0.3-4.6,0.3-6.9c0-13.4,0-26.8,0-40.2
			c0-1.9,0-3.9-0.4-5.7c-0.4-1.4-1.4-2.6-2.2-3.9c0.1,0,0.5-0.2,0.9-0.3c5.7-0.9,11.4-1.9,17.1-2.8c10.5-1.6,20.1,6.3,20.5,16.7
			c0.4,10-3.8,18-12.8,24c-0.2,0.2-0.5,0.3-0.7,0.5c0,0-0.1,0.1-0.2,0.4c2.1,3,4.1,6.2,6.3,9.2c2.2,2.9,3.9,6.4,8.1,7.4
			c-5.1,0.8-10.3,1.7-15.6,2.6c1.9-3.4-0.4-5.3-1.7-7.4c-1.4-2.4-3-4.5-4.7-6.7C381.3,165.2,380,164,377.4,164.2z M377.7,160.7
			c6.3-0.9,10.8-4.6,13.7-10.2c4.1-7.7,4-15-0.4-21.2c-3-4.2-7.3-6.2-13.3-5C377.7,136.6,377.7,148.6,377.7,160.7z"/>
		<path class="st2" d="M284.7,136.2c5.4-0.9,10.6-1.7,15.9-2.6c-0.1,0.4-0.1,0.8-0.2,0.9c-2.7,1.3-2.6,3.7-2.6,5.7
			c-0.2,9-0.1,18.1,0.2,27.2c0.6-1.4,1.3-2.9,1.9-4.3c3.4-7.9,6.8-15.8,10.1-23.7c1.8-4.3,1.7-4.3,0.2-7.2c4.1-0.7,8.1-1.3,12.3-2
			c-0.2,0.3-0.3,0.7-0.6,0.8c-2.7,1.2-3.8,3.7-4.9,6.1c-4.1,9.4-8.2,18.9-12.2,28.3c-0.2,0.5-0.2,1.4,0,1.8
			c4.8,6.9,9.6,13.9,14.6,20.6c1.2,1.6,3.2,2.5,4.8,3.7c-4.9,0.8-10,1.6-15.3,2.5c1.9-3.4-0.4-5.3-1.7-7.4
			c-2.1-3.5-4.6-6.8-6.9-10.2c-2,3.5-3,6.8-2.6,10.4c0.3,3.2-0.5,6.9,2.9,8.7c-5.2,0.8-10.3,1.7-15.5,2.6c0-0.2,0-0.4,0-0.5
			c3.1-2.1,2.8-5.1,2.9-7.7c0.1-15.4,0.1-30.8,0-46.2c0-1.2-0.1-2.4-0.4-3.5c-0.2-1.3-0.4-2.8-2.2-2.8
			C285.1,137,284.9,136.6,284.7,136.2z"/>
		<path class="st2" d="M253.3,141.3c5.5-0.9,10.7-1.8,16-2.6c0.1,0.2,0.2,0.4,0.1,0.4c-2.7,2.5-1.9,5.4-1.4,7.8
			c1.8,10.9,3.9,21.7,5.9,32.7c1.8-1.5,0.7-2.7,0.4-3.9c2.3-0.4,4,0.6,4.6,2.7c0.8,2.6-0.2,4.7-3.8,7.7c1.1,8,1.2,8.3,5.2,12.5
			c-5.3,0.9-10.4,1.7-15.6,2.6c0-0.2-0.1-0.5,0-0.5c2.3-1.6,2.1-3.7,1.8-5.7c-0.3-2.5-0.7-4.9-1.2-7.3c-0.1-0.6-0.8-1.3-1.5-1.4
			c-7-0.9-12.7,2.5-13.8,10.8c-0.3,2.3-1.2,4.8,1.3,6.3c-4,0.7-8,1.3-12.1,2c0.2-0.3,0.3-0.7,0.5-0.8c2.4-1.1,3-3.2,3.5-5.3
			c1.9-7.9,3.7-15.8,5.4-23.7c2-9.2,4-18.4,6-27.5c0.2-1.1,0.3-2.2,0.4-3.2c0.1-1.1,0.1-2.2-1.3-2.4
			C253.5,142.3,253.5,141.7,253.3,141.3z M259.4,155.6c-0.1,0-0.2,0.1-0.4,0.1c-2.2,9.8-4.3,19.5-6.4,28.9c3.9-1.1,7.6-2.2,11.4-3.3
			C262.6,172.9,261,164.2,259.4,155.6z"/>
		<path class="st2" d="M359,124c-0.6,7.4-4.2,14.5-4.8,21.7c0.4,0,0.5,0,0.5,0c0.7-1.2,1.4-2.6,2.9-2.2c0.7,0.1,1.4,0.9,1.5,1.6
			c0.3,1.5-0.6,2.7-2,3.7c-3.5,2.4-7.2,0.6-7.3-3.9c0-3.4,0.5-6.9,0.8-10.3c0.1-0.9,0-1.7,0-2.6c-0.2-1.9-1.4-2.8-3.3-2.6
			c-2,0.2-4,0.6-6.2,1c0,11.5,0,22.9,0,34.6c3.1-0.6,6.3-0.7,8.6-4.8c0,3.8,0,6.9,0,10.7c-2.1-3.4-5.5-2.3-8.7-2.1
			c0,5.5,0,10.8,0,16.1c6.9-0.2,10.1-1.4,12.5-9c0.9-2.8,1.1-5.7,1.6-8.5c0.5-2.8,1.3-3.6,4.2-3.5c-2,7.6-1.5,14.7,0.1,21.8
			c-10.5,1.7-20.7,3.4-31.1,5.1c0-0.3,0-0.7,0.1-0.8c2.8-1.7,2.6-4.3,2.6-6.6c0.1-12.5,0.1-24.9,0.1-37.4c0-3,0.1-6,0-9
			c-0.1-2.9,0.6-6.3-2.8-7.9C338.7,127.4,348.8,125.7,359,124z"/>
		<path class="st2" d="M404.3,116.5c5.5-0.9,10.6-1.7,15.8-2.6c0,0.3,0.1,0.6,0.1,0.6c-2.1,1.5-1.5,3.3-1.1,4.9
			c1.8,7.4,3.6,14.7,5.4,22.1c0,0.2,0.2,0.3,0.5,0.7c1.2-5.9,2.3-11.5,3.4-17c0.4-2.2,0.8-4.5,1.3-6.7c0.4-2.2,1.1-4.4-1.6-5.8
			c4.6-0.8,8.6-1.4,12.6-2.1c0,0.2,0,0.4,0,0.4c-4.3,2.6-4.8,6.9-5.7,10.8c-2.4,10.2-4.6,20.5-6.7,30.8c-0.6,3.1-0.3,6.2-0.3,9.3
			c0,2.7,0.2,5.4,0.4,8.2c0.1,1.5,0.5,2.7,2.2,2.9c0.2,0,0.3,0.5,0.5,0.9c-5.4,0.9-10.5,1.7-15.8,2.6c0.1-0.4,0.2-0.7,0.3-0.8
			c2.3-1.2,2.3-3.2,2.5-5.2c1.2-10-1-19-3.3-27.9c-1.5-5.8-2.8-11.8-4.3-17.6c-0.6-2.1-1.4-4.1-2.5-5.9
			C407,118,405.7,117.4,404.3,116.5z"/>
	</g>
	<g>
		<path class="st2" d="M185.4,173.1c-1.3-1.5-2.4-3.2-3.9-4.5c-5.4-4.9-12-6.4-19.1-6.1c-7.3,0.3-13.6,3.1-18.8,8.3
			c-4.8,4.9-8.9,10.2-10.8,17c-0.1,0.2-0.1,0.4,0,0.7c0.8-1.3,1.7-2.5,2.5-3.8c2.8-4.1,5.7-8.2,9.5-11.5c7.3-6.4,15.6-8.5,25-5.6
			c3.1,1,5.8,2.7,7.9,5.2c3.6,4.3,4,9.1,1.8,14.2c-2.4,5.3-6.5,9-11.4,11.9c-3.6,2.1-7.4,3.9-11.6,3.7c-1.8-0.1-3.8-0.5-5.5-1.2
			c-3.9-1.7-5.2-4.5-4.2-8.6c-0.9,0.9-1.4,2.4-1.4,3.8c0.2,4.4,2.6,7.4,6.8,8.5c3.8,1,7.7,0.7,11.4-0.2c7.5-1.7,13.9-5.2,18.9-11
			c4.1-4.7,5.9-10.2,4.3-16.4c0-0.1,0-0.2,0-0.3C186.5,175.8,186,174.5,185.4,173.1z"/>
		<path class="st2" d="M60.7,234.9c3.3,2,6.8,2.9,10.6,2.1c3-0.6,4.9-2.7,6.8-5.2c-1.6,0.5-2.9,1-4.2,1.4c0,0,0-0.1,0-0.1
			c1.3-0.9,2.6-1.8,4.1-2.9c-3.9-0.7-7.2-0.1-10.4,1.5c-1.6,0.8-3.2,1.6-4.9,2.4c-0.7,0.3-1.5,0.3-2.2,0.5
			C60.6,234.6,60.6,234.8,60.7,234.9z"/>
		<path class="st2" d="M107.8,199.3c2.2-0.7,3.5-2.1,4.9-3.4c4.6-4.3,8.4-9.3,12.3-14.2c4.3-5.4,9.2-10.2,15.3-13.5
			c3-1.6,6.2-2.7,9.3-4c0.5-0.2,1.1-0.5,1.6-0.8c-3.7,0.2-7.4,0.2-10.9,1.6c-8.7,3.3-15.5,9-20.6,16.7c-3.5,5.2-7,10.4-10.5,15.6
			C108.8,198,108.4,198.5,107.8,199.3z"/>
		<path class="st2" d="M158,168.5c3.9,0.7,7.4,6.2,6.9,10.3c-0.4,3.8-4.3,8.6-7.7,8.6c1.1,1.3,3,1.7,5,1c2.2-0.7,4-1.9,5.6-3.6
			c2.4-2.6,2.6-5.7,1.7-8.9c-1.1-3.8-3.2-6.8-7.3-7.8c-1.4-0.3-2.9-0.1-4.3-0.1C158,168.2,158,168.3,158,168.5z"/>
		<path class="st2" d="M106.3,201.8c-0.9,0.6-2,1.3-3,2.1c-1.9,1.4-2.9,3.3-2.9,5.7c0,1.6,0.1,3.2,0.3,4.8c0.2,2.3,0.5,4.6-0.2,6.9
			c2.2-2.3,4.2-4.8,4.5-8.2c0.2-2,0.2-4,0.4-6C105.6,205.3,106,203.6,106.3,201.8z"/>
		<path class="st2" d="M118.2,223.2c-0.1,1.2-0.3,2.1-0.4,3.1c-0.1,0.9-0.1,1.9-0.1,2.8c-0.1,0-0.3,0-0.4,0c-0.2-2-0.5-4-0.7-5.9
			c-2.3,1.8-3,4.1-1.6,6.9c0.6,1.3,1.5,2.5,2.2,3.8c0.7,1.5,1.3,3,1.9,4.5C122.3,235.1,122.9,229.5,118.2,223.2z"/>
		<path class="st2" d="M72.9,223.6c1.7,0,3.5-0.2,5.3-0.1c3.2,0.3,5.8-0.9,7.9-3.2c1-1,1.8-2.2,2.7-3.5c-2.2,1.7-4.7,1.3-7.1,1.2
			C78,217.8,74,220.5,72.9,223.6z"/>
		<path class="st2" d="M86.9,204.7c1.4,0.1,2.7,0,3.9,0.2c5,0.7,9.3-0.8,13.3-4c-4.4-0.1-8.7-1.2-12.9,0.4
			C89.4,201.9,87.8,202.8,86.9,204.7z"/>
		<path class="st2" d="M99,208.1c-1.3,1.3-2.6,2.6-3.8,3.9c-1.1,1.2-1.2,2.7-0.7,4.2c0.3,0.7,0.5,1.5,0.9,2.1
			c1.1,2.1,1.3,4.2,0.5,6.4c-0.1,0.2-0.1,0.4,0,0.8c0.5-0.4,1.1-0.8,1.5-1.3c1.8-2.1,2.8-4.4,1.8-7.1c-1.1-3-1.4-6,0-9
			C99.2,208.2,99.1,208.1,99,208.1z"/>
		<path class="st2" d="M89.6,218.8c-2.2,1.5-3.7,3.4-4.1,6.1c-0.1,0.6-0.1,1.3-0.2,2c-0.2,4.4-0.2,5-2.9,9c0,0.1,0.1,0.1,0.1,0.2
			c1.8-1.5,3.8-2.7,5.4-4.4c1.8-1.8,2.2-4.2,1.3-6.7C88.4,222.8,88,220.8,89.6,218.8z"/>
		<path class="st2" d="M77.8,217.5c2.3-1.5,4.6-0.9,7-0.6c3.7,0.4,7.8-2.4,8.9-6.1c-2.3,1.3-4.7,1.4-7.1,1.6
			C82.7,212.6,80.1,214.8,77.8,217.5z"/>
		<path class="st2" d="M99.3,204.7c-2.7,1.5-5.6,1.8-8.6,1.8c-2.8,0-5.2,1.3-7.3,3.1c-0.5,0.5-0.8,1.2-1.1,1.9
			c0.6-0.3,1.1-0.8,1.8-0.9c1.3-0.2,2.7-0.4,4-0.2c3,0.5,5.6-0.3,7.9-2.2c1.2-1,2.4-2.2,3.6-3.3C99.5,205,99.4,204.8,99.3,204.7z"/>
		<path class="st2" d="M72.2,238.6c0.6,0.1,1.3,0.3,1.9,0.2c2.4-0.5,4.7-1.3,6.7-2.8c1.8-1.3,2.8-3.1,2.9-5.4
			c0.1-1.5,0.2-2.9,0.4-4.7c-1,0.9-1.9,1.6-2.6,2.5c-1.1,1.5-2.1,3.2-3.1,4.8c-1.5,2.4-3.4,4.2-6.1,5.1
			C72.2,238.3,72.2,238.5,72.2,238.6z"/>
		<path class="st2" d="M129,197.3c-0.7,1-1.4,1.8-2,2.7c-0.7,1-0.7,2.2-0.2,3.3c0.8,1.5,1.7,2.9,2.4,4.5c0.7,1.3,1.2,2.7,1.7,4
			c2.2-1.9,2.5-5.9,0.6-9c-0.5-0.8-1.1-1.6-1.5-2.5C129.6,199.5,129.4,198.5,129,197.3z"/>
		<path class="st2" d="M122.1,207.8c-3.7,4.8-0.8,11.2,5.9,13.8c-0.3-1.4-0.4-2.9-0.9-4.3c-0.5-1.4-1.3-2.7-2.2-3.9
			C123.7,211.8,122.3,210.3,122.1,207.8z"/>
		<path class="st2" d="M123.6,202.1c-2.7,0.7-5.4,1.4-8.1,2.1c-1.7,0.4-2.9,1.4-3.6,3c-0.7,1.6-1.2,3.2-1.8,4.8
			c0.1,0.1,0.3,0.1,0.4,0.2c0.2-0.3,0.4-0.5,0.5-0.8c0.7-1.4,1.7-2.2,3.4-2.4c3.7-0.4,6.6-2.3,8.5-5.4
			C123.2,202.9,123.4,202.4,123.6,202.1z"/>
		<path class="st2" d="M69.4,228.3c1.5,0.2,3,0.3,4.4,0.8c4.9,1.5,7.8-1.5,9.4-5.2c0-0.1,0-0.2,0-0.4c-0.7,0.3-1.3,0.7-2,0.8
			c-1.7,0.3-3.4,0.5-5.1,0.6c-2.7,0.1-5,1.1-6.7,3.3C69.4,228.3,69.3,228.4,69.4,228.3z"/>
		<path class="st2" d="M109.6,220.4c0.3-0.4,0.6-0.7,0.8-1.1c0.7-1.4,1.8-2.3,3.2-3c3.2-1.6,5.4-4,6.3-7.5c0-0.2,0.1-0.4,0.1-0.4
			c-2,0.9-4.2,1.5-6.1,2.7c-1.2,0.7-2.3,1.9-2.8,3.2c-0.9,1.9-1.3,4-1.9,6C109.3,220.3,109.4,220.3,109.6,220.4z"/>
		<path class="st2" d="M118.1,214.4c-3.7,2.4-6.8,5-6.7,9.7c0,1.9-0.3,3.8,1,5.5c-0.1-2.8,1.6-4.7,3-6.7c0.6-0.9,1.1-1.9,1.4-2.9
			C117.3,218.3,117.7,216.4,118.1,214.4z"/>
		<path class="st2" d="M125.1,202.3c-2.7,2.5-2.9,5.8-0.8,8.5c0.5,0.6,0.9,1.1,1.5,1.6c1.5,1.2,2.5,2.6,2.8,4.5c0.1,0,0.2,0,0.3,0
			c0.2-0.9,0.4-1.7,0.5-2.6c0.1-2.9-1.1-5.4-2.7-7.7C125.9,205.3,125,204.1,125.1,202.3z"/>
		<path class="st2" d="M125.2,229.5c-1.2-1.8-1.1-3.8-1.3-5.7c-0.2-2.5-1.6-4.6-3-6.6c-0.6-0.8-1-1.8-1.5-2.6
			c-1.2,2-1.4,6.2,0.2,8.5c1.6,2.4,3.4,4.5,5.2,6.7C124.9,229.7,125.1,229.6,125.2,229.5z"/>
		<path class="st2" d="M93.4,214.2c-2.5,2-3.1,4.3-2.8,7c0.2,1.3,0.5,2.6,0.6,3.9c0.2,1.5,0.1,3.1-1,4.5c4.1-1.5,5.8-5.7,4-9.4
			C93.3,218.4,92.3,216.6,93.4,214.2z"/>
		<path class="st2" d="M128.4,195.9c-1.4,1-2.9,1-4.5,0.7c-2.9-0.5-5,0.6-6.6,3c-0.6,0.9-1.2,1.9-1.8,2.7c2.3-0.5,4.6-0.8,6.9-1.5
			C125,200,126.9,198.1,128.4,195.9z"/>
		<path class="st2" d="M132.7,191.7c-2.4,2.6-2.8,4.9-1.4,8.2c0.6,1.4,1.2,2.7,1.8,4.2c1.8-1.7,1.7-3.8,1.3-5.9
			C133.9,196,133.2,193.9,132.7,191.7z"/>
		<path class="st2" d="M121.6,194.5c2,2.3,9,0.8,9.5-2.6C127.2,190.4,124.8,193.6,121.6,194.5z"/>
	</g>
</g>
</svg>
